<svg width="159" height="55" viewBox="0 0 159 55" fill="none" xmlns="http://www.w3.org/2000/svg">
<path d="M53.1852 4C55.0771 7.91616 58.0349 11.2196 61.7189 13.5312C65.403 15.8428 69.6641 17.069 74.0133 17.069C78.3626 17.069 82.6237 15.8428 86.3077 13.5312C89.9918 11.2196 92.9495 7.91616 94.8415 4" stroke="url(#paint0_linear_1_12)" stroke-width="7" stroke-miterlimit="10" stroke-linecap="round"/>
<path d="M60.2947 23.4401C62.7075 26.4196 64.639 29.7583 66.0192 33.3351C67.6765 37.6566 68.4412 42.2689 68.2673 46.894L73.912 50.2538L79.747 46.894C79.576 42.2689 80.3417 37.6568 81.9981 33.3351C83.3634 29.7512 85.2963 26.4101 87.7227 23.4401" stroke="url(#paint1_linear_1_12)" stroke-width="7" stroke-miterlimit="10"/>
<path d="M115.842 40.4846H96.2081C96.3678 42.4235 97.0465 43.9416 98.2442 45.039C99.4442 46.1407 101.026 46.7321 102.654 46.6882C105.175 46.6882 106.969 45.6062 108.038 43.4421H115.356C114.604 45.9964 113.039 48.2352 110.897 49.8177C108.698 51.4822 106 52.3145 102.802 52.3145C100.372 52.3541 97.9734 51.7604 95.8426 50.5916C93.8034 49.4646 92.1325 47.7735 91.0302 45.7208C89.8507 43.4802 89.259 40.977 89.3104 38.4454C89.3104 35.665 89.8755 33.2256 91.0057 31.127C92.0834 29.0825 93.7346 27.3971 95.7566 26.2777C97.9026 25.1701 100.281 24.5881 102.696 24.5796C105.111 24.571 107.493 25.1362 109.647 26.2286C111.645 27.2945 113.286 28.9214 114.371 30.9089C115.514 33.0463 116.089 35.4415 116.041 37.865C116.046 38.7422 115.979 39.6183 115.842 40.4846ZM109.005 35.921C109.02 35.1256 108.858 34.3369 108.532 33.6115C108.205 32.8861 107.722 32.2421 107.117 31.7259C105.857 30.6644 104.251 30.1036 102.605 30.1504C101.048 30.1086 99.5332 30.6571 98.364 31.6859C97.2154 32.7096 96.5121 34.1244 96.2541 35.9302L109.005 35.921Z" fill="white"/>
<path d="M123.891 51.1259C122.256 50.421 120.829 49.3099 119.745 47.8982C118.748 46.5972 118.165 45.0264 118.071 43.3898H124.907C124.972 43.9008 125.141 44.3928 125.406 44.8348C125.67 45.2767 126.023 45.6589 126.443 45.9573C127.403 46.6577 128.569 47.0166 129.757 46.9769C131.049 46.9769 132.058 46.7179 132.785 46.1999C133.12 45.9881 133.396 45.6947 133.588 45.3473C133.779 44.9998 133.879 44.6095 133.878 44.2129C133.878 43.3407 133.434 42.6866 132.545 42.2505C131.176 41.6528 129.755 41.1789 128.301 40.8347C126.63 40.4508 124.988 39.949 123.387 39.3329C122.113 38.8165 120.982 38.0012 120.089 36.9559C119.168 35.8913 118.707 34.453 118.707 32.641C118.693 31.1767 119.141 29.7453 119.988 28.5503C120.922 27.2578 122.198 26.2508 123.673 25.642C125.459 24.8927 127.384 24.5285 129.321 24.5733C132.521 24.5733 135.074 25.3738 136.98 26.9748C138.886 28.5759 139.936 30.739 140.131 33.4641H133.636C133.604 32.9704 133.469 32.4889 133.24 32.0508C133.01 31.6127 132.691 31.2278 132.303 30.9212C131.51 30.2886 130.452 29.9733 129.127 29.9753C127.899 29.9753 126.953 30.1995 126.289 30.654C125.973 30.8549 125.715 31.1349 125.541 31.4661C125.366 31.7974 125.281 32.1685 125.294 32.5427C125.294 33.4497 125.748 34.1366 126.655 34.6034C127.562 35.0702 128.967 35.5473 130.872 36.0346C132.505 36.4227 134.109 36.9256 135.672 37.5394C136.937 38.0552 138.058 38.8698 138.939 39.9134C139.861 40.9964 140.338 42.4296 140.37 44.2129C140.39 45.7032 139.941 47.162 139.087 48.3834C138.154 49.6721 136.877 50.6717 135.401 51.2672C133.627 51.9958 131.721 52.3512 129.803 52.3114C127.77 52.344 125.754 51.9398 123.891 51.1259Z" fill="white"/>
<path d="M152.397 30.5925V43.5986C152.397 44.5056 152.615 45.1598 153.051 45.561C153.49 45.9664 154.224 46.1753 155.259 46.1753H158.41V51.8906H154.144C148.424 51.8906 145.557 49.1112 145.545 43.5526V30.5925H142.36V25.0185H145.561V18.3757H152.397V25.0185H158.41V30.5925H152.397Z" fill="white"/>
<path d="M14.643 30.5925H9.95341V51.8906H3.05267V30.6079H0V25.0154H3.05267V23.658C3.05267 20.3617 3.99037 17.9376 5.86579 16.3857C7.7412 14.8337 10.5697 14.1069 14.3512 14.2052V19.9266C12.701 19.8918 11.5534 20.1662 10.9085 20.7497C10.2636 21.3332 9.94522 22.3835 9.95341 23.9006V25.0154H14.6583L14.643 30.5925Z" fill="white"/>
<path d="M19.222 20.676C18.8473 20.3048 18.5499 19.863 18.347 19.3762C18.144 18.8894 18.0395 18.3673 18.0395 17.8398C18.0395 17.3124 18.144 16.7902 18.347 16.3034C18.5499 15.8166 18.8473 15.3749 19.222 15.0037C20.0419 14.2699 21.1037 13.8641 22.204 13.8641C23.3044 13.8641 24.3661 14.2699 25.1861 15.0037C25.5607 15.3749 25.8581 15.8166 26.0611 16.3034C26.2641 16.7902 26.3686 17.3124 26.3686 17.8398C26.3686 18.3673 26.2641 18.8894 26.0611 19.3762C25.8581 19.863 25.5607 20.3048 25.1861 20.676C24.3661 21.4098 23.3044 21.8156 22.204 21.8156C21.1037 21.8156 20.0419 21.4098 19.222 20.676ZM25.5484 25.0154V51.8906H18.7613V25.0154H25.5484Z" fill="white"/>
<path d="M54.5917 27.6597C56.5674 29.6866 57.5553 32.5069 57.5553 36.1205V51.8906H50.759V37.0388C50.759 34.9074 50.2267 33.2695 49.162 32.125C48.0974 30.9805 46.6427 30.4032 44.798 30.3929C42.9226 30.3929 41.4433 30.9662 40.3603 32.1127C39.2772 33.2593 38.7357 34.8972 38.7357 37.0265V51.8906H31.9485V25.0154H38.7357V28.3629C39.6561 27.1873 40.8437 26.2482 42.1999 25.6235C43.65 24.9504 45.2324 24.6104 46.8311 24.6285C50.0332 24.6285 52.6201 25.6389 54.5917 27.6597Z" fill="white"/>
<defs>
<linearGradient id="paint0_linear_1_12" x1="74.0133" y1="4" x2="74.0133" y2="17.069" gradientUnits="userSpaceOnUse">
<stop stop-color="#01D88A"/>
<stop offset="1" stop-color="#00EEE0"/>
</linearGradient>
<linearGradient id="paint1_linear_1_12" x1="74.0087" y1="23.4401" x2="74.0087" y2="50.2538" gradientUnits="userSpaceOnUse">
<stop stop-color="#01D88A"/>
<stop offset="1" stop-color="#00EEE0"/>
</linearGradient>
</defs>
</svg>
